<?xml version="1.0" encoding="utf-8"?>
<!-- Generator: Adobe Illustrator 19.0.0, SVG Export Plug-In . SVG Version: 6.00 Build 0)  -->
<svg version="1.1" id="Layer_1" xmlns="http://www.w3.org/2000/svg" xmlns:xlink="http://www.w3.org/1999/xlink" x="0px" y="0px"
	 viewBox="0 0 96 96" style="enable-background:new 0 0 96 96;" xml:space="preserve">
<style type="text/css">
	.st0{fill:#333333;}
</style>
<g id="XMLID_1_">
	<path id="XMLID_6_" class="st0" d="M48.9,19.1c-2.3-2.3-5.5-3.6-8.8-3.6H27.9c-6.8,0-12.4,5.6-12.4,12.4v12.3
		c0,3.3,1.3,6.5,3.6,8.8l30.1,30.1c1.9,1.9,5.1,1.9,7,0L79,56.3c1.9-1.9,1.9-5.1,0-7L48.9,19.1z M22.4,45.7
		c-1.5-1.5-2.3-3.5-2.3-5.6V27.9c0-4.4,3.6-7.9,7.9-7.9h12.3c2.1,0,4.1,0.8,5.6,2.3l30.5,30.5L52.8,76.3L22.4,45.7z M25.5,25.4h9.9
		v9.9h-10L25.5,25.4L25.5,25.4z"/>
</g>
</svg>
